<svg width="998" height="351" viewBox="0 0 998 351" fill="none" xmlns="http://www.w3.org/2000/svg">
<path d="M0 79.0001C0 43.6538 28.6538 15 64 15H243.021C278.367 15 307.021 43.6538 307.021 79V258.021C307.021 293.367 278.367 322.021 243.021 322.021H64.0001C28.6538 322.021 0 293.367 0 258.021V79.0001Z" fill="black"/>
<path d="M125 76.0058C125 58.3327 139.327 44 157 44H246.52C264.193 44 278.52 58.3269 278.52 76V165.52C278.52 183.193 264.193 197.52 246.52 197.52H157C139.327 197.52 125 183.187 125 165.514C125 133.628 125 107.893 125 76.0058Z" fill="white"/>
<path d="M48 153C48 135.327 62.3269 121 80 121H169.51C187.183 121 201.51 135.327 201.51 153V242.51C201.51 260.183 187.183 274.51 169.51 274.51H80C62.3269 274.51 48 260.183 48 242.51V153Z" fill="black"/>
<path d="M334.2 322V103.3H391.17C400.53 103.3 409.35 104.02 417.63 105.46C426.09 106.9 433.56 109.69 440.04 113.83C446.52 117.79 451.56 123.55 455.16 131.11C458.94 138.49 460.83 148.3 460.83 160.54C460.83 169.36 459.48 176.83 456.78 182.95C454.26 188.89 450.57 193.66 445.71 197.26C441.03 200.86 435.36 203.29 428.7 204.55C437.16 205.63 444.27 208.42 450.03 212.92C455.79 217.24 460.11 223.09 462.99 230.47C466.05 237.85 467.58 246.76 467.58 257.2C467.58 268.54 466.05 278.35 462.99 286.63C460.11 294.73 455.88 301.39 450.3 306.61C444.72 311.83 437.79 315.7 429.51 318.22C421.41 320.74 412.05 322 401.43 322H334.2ZM382.53 288.25H392.79C403.41 288.25 410.7 285.55 414.66 280.15C418.8 274.75 420.87 266.83 420.87 256.39C420.87 248.11 419.97 241.54 418.17 236.68C416.37 231.82 413.4 228.31 409.26 226.15C405.12 223.81 399.54 222.64 392.52 222.64H382.53V288.25ZM382.53 190.78H391.98C399.36 190.78 404.94 189.7 408.72 187.54C412.5 185.2 415.02 181.87 416.28 177.55C417.72 173.23 418.44 168.01 418.44 161.89C418.44 156.13 417.36 151.36 415.2 147.58C413.22 143.62 410.16 140.65 406.02 138.67C402.06 136.69 397.02 135.7 390.9 135.7H382.53V190.78ZM541.8 324.7C530.64 324.7 520.92 322.81 512.64 319.03C504.54 315.25 498.24 309.58 493.74 302.02C489.42 294.46 487.26 285.01 487.26 273.67V214.27C487.26 202.93 489.42 193.48 493.74 185.92C498.24 178.36 504.54 172.69 512.64 168.91C520.92 165.13 530.64 163.24 541.8 163.24C552.96 163.24 562.59 165.13 570.69 168.91C578.97 172.69 585.36 178.36 589.86 185.92C594.36 193.48 596.61 202.93 596.61 214.27V273.67C596.61 285.01 594.36 294.46 589.86 302.02C585.36 309.58 578.97 315.25 570.69 319.03C562.59 322.81 552.96 324.7 541.8 324.7ZM542.07 295.54C544.95 295.54 547.2 294.82 548.82 293.38C550.44 291.76 551.52 289.6 552.06 286.9C552.78 284.02 553.14 280.6 553.14 276.64V211.3C553.14 207.34 552.78 204.01 552.06 201.31C551.52 198.43 550.44 196.27 548.82 194.83C547.2 193.21 544.95 192.4 542.07 192.4C539.19 192.4 536.94 193.21 535.32 194.83C533.7 196.27 532.53 198.43 531.81 201.31C531.09 204.01 530.73 207.34 530.73 211.3V276.64C530.73 280.6 531.09 284.02 531.81 286.9C532.53 289.6 533.7 291.76 535.32 293.38C536.94 294.82 539.19 295.54 542.07 295.54ZM621.018 322V165.94H665.028V181.6C670.788 175.84 676.728 171.34 682.848 168.1C689.148 164.86 695.718 163.24 702.558 163.24C709.038 163.24 714.348 164.86 718.488 168.1C722.808 171.16 726.048 175.48 728.208 181.06C730.368 186.46 731.448 192.67 731.448 199.69V322H687.708V205.9C687.708 202.12 687.078 199.24 685.818 197.26C684.558 195.28 682.218 194.29 678.798 194.29C676.998 194.29 674.838 194.83 672.318 195.91C669.978 196.81 667.548 198.16 665.028 199.96V322H621.018ZM791.614 324.7C780.094 324.7 771.184 320.65 764.884 312.55C758.584 304.45 755.434 292.48 755.434 276.64V212.11C755.434 202.39 756.784 193.93 759.484 186.73C762.184 179.35 766.234 173.59 771.634 169.45C777.034 165.31 783.694 163.24 791.614 163.24C797.374 163.24 802.864 164.41 808.084 166.75C813.304 168.91 818.074 171.88 822.394 175.66V103.3H866.404V322H822.394V309.85C817.534 314.53 812.494 318.22 807.274 320.92C802.054 323.44 796.834 324.7 791.614 324.7ZM810.784 296.62C812.224 296.62 813.934 296.26 815.914 295.54C818.074 294.82 820.234 293.83 822.394 292.57V194.02C820.594 193.12 818.704 192.31 816.724 191.59C814.744 190.87 812.854 190.51 811.054 190.51C807.094 190.51 804.214 192.22 802.414 195.64C800.614 198.88 799.714 202.84 799.714 207.52V279.34C799.714 282.58 800.074 285.55 800.794 288.25C801.514 290.77 802.684 292.84 804.304 294.46C805.924 295.9 808.084 296.62 810.784 296.62ZM941.715 324.7C928.035 324.7 916.605 321.64 907.425 315.52C898.425 309.4 891.045 299.41 885.285 285.55L915.255 272.32C918.135 279.34 921.465 284.92 925.245 289.06C929.205 293.02 933.525 295 938.205 295C941.625 295 944.145 294.28 945.765 292.84C947.565 291.4 948.465 289.42 948.465 286.9C948.465 282.76 946.845 278.98 943.605 275.56C940.545 272.14 934.965 267.1 926.865 260.44L915.525 250.99C907.245 243.97 900.675 237.22 895.815 230.74C891.135 224.08 888.795 215.89 888.795 206.17C888.795 197.71 890.955 190.24 895.275 183.76C899.775 177.28 905.715 172.24 913.095 168.64C920.475 165.04 928.395 163.24 936.855 163.24C949.635 163.24 960.345 166.75 968.985 173.77C977.625 180.79 983.655 190.69 987.075 203.47L958.725 216.43C957.645 213.01 956.115 209.59 954.135 206.17C952.155 202.75 949.725 199.87 946.845 197.53C944.145 195.19 941.175 194.02 937.935 194.02C935.055 194.02 932.715 194.83 930.915 196.45C929.295 198.07 928.485 200.23 928.485 202.93C928.485 206.35 930.375 210.04 934.155 214C938.115 217.96 943.515 222.73 950.355 228.31L961.425 238.03C965.925 241.81 970.335 245.86 974.655 250.18C978.975 254.5 982.485 259.27 985.185 264.49C988.065 269.71 989.505 275.65 989.505 282.31C989.505 291.31 987.255 299.05 982.755 305.53C978.255 311.83 972.315 316.6 964.935 319.84C957.735 323.08 949.995 324.7 941.715 324.7Z" fill="black"/>
<path d="M487 335H733V351H487V335Z" fill="black"/>
</svg>
